<svg width="152" height="27" viewBox="0 0 152 27" fill="none" xmlns="http://www.w3.org/2000/svg">
<path d="M93.8791 3.69622L94.0025 3.43974C94.5632 3.44677 95.0193 3.52406 95.3745 3.67865C95.7296 3.83324 95.9913 4.03702 96.1558 4.297C96.3203 4.55699 96.4063 4.8486 96.4063 5.17534C96.4063 5.53019 96.3166 5.84288 96.1371 6.11341C95.9577 6.38394 95.696 6.59825 95.3483 6.75635C95.0006 6.91446 94.5745 6.99175 94.0586 6.99175H89.3481L89.9052 3.58379L89.3481 0.351501H93.8903C94.5445 0.351501 95.0492 0.495548 95.4006 0.78013C95.7558 1.06823 95.9315 1.46172 95.9315 1.96413C95.9315 2.23115 95.8642 2.48762 95.7296 2.74059C95.595 2.99355 95.3782 3.20435 95.0791 3.3765C94.7801 3.55217 94.3801 3.65757 93.8791 3.69973V3.69622ZM90.6005 6.6615L90.1183 6.05017H93.9165C94.3053 6.05017 94.6081 5.96585 94.8249 5.79721C95.0418 5.62857 95.1502 5.38966 95.1502 5.07697C95.1502 4.74671 95.0231 4.49024 94.7689 4.30754C94.5146 4.12485 94.1371 4.0335 93.6436 4.0335H90.5818V3.13057H93.5202C93.8529 3.13057 94.1296 3.04273 94.3502 2.87058C94.5707 2.69491 94.6791 2.44546 94.6791 2.12223C94.6791 1.87981 94.5894 1.67955 94.4062 1.52496C94.223 1.36686 93.9614 1.28957 93.6137 1.28957H90.1183L90.6005 0.678243L91.1015 3.58379L90.6005 6.66501V6.6615Z" fill="white"/>
<path d="M99.6624 7.1148C99.1727 7.1148 98.7577 7.01994 98.4138 6.83022C98.0698 6.6405 97.8081 6.36997 97.625 6.01512C97.4418 5.66027 97.3521 5.23867 97.3521 4.75031V1.97827H98.5783V4.57113C98.5783 5.09111 98.7054 5.4846 98.9596 5.75513C99.2138 6.02215 99.5801 6.15917 100.059 6.15917C100.406 6.15917 100.702 6.0889 100.948 5.94837C101.195 5.80783 101.39 5.60406 101.528 5.34056C101.666 5.07705 101.733 4.77139 101.733 4.42357L102.156 4.64491C102.107 5.15786 101.969 5.60055 101.741 5.96945C101.517 6.33835 101.225 6.62293 100.866 6.81968C100.507 7.01643 100.107 7.1148 99.6586 7.1148H99.6624ZM102.048 6.99184L101.737 5.18597V1.98179H102.963V5.36515L103.274 6.99535H102.048V6.99184Z" fill="white"/>
<path d="M109.85 5.46673C109.85 5.80402 109.749 6.09562 109.547 6.34507C109.345 6.59452 109.042 6.78424 108.631 6.91775C108.223 7.05126 107.711 7.11801 107.094 7.11801C106.478 7.11801 105.909 7.04423 105.446 6.89316C104.982 6.74208 104.62 6.53128 104.365 6.25724C104.111 5.9832 103.977 5.66699 103.954 5.30512H105.199C105.236 5.49484 105.341 5.65997 105.506 5.80401C105.67 5.94806 105.891 6.06049 106.164 6.13778C106.436 6.21508 106.75 6.25373 107.102 6.25373C107.61 6.25373 107.992 6.19751 108.25 6.08157C108.507 5.96563 108.635 5.78996 108.635 5.55457C108.635 5.39647 108.549 5.2735 108.377 5.19269C108.205 5.10837 107.879 5.04864 107.401 5.00648L106.354 4.91865C105.79 4.87298 105.341 4.7746 105.016 4.63055C104.691 4.48651 104.455 4.30732 104.317 4.10004C104.178 3.89275 104.111 3.66789 104.111 3.4325C104.111 3.0917 104.223 2.80361 104.451 2.57524C104.679 2.34687 104.993 2.16769 105.393 2.04823C105.797 1.92878 106.264 1.86554 106.799 1.86554C107.334 1.86554 107.846 1.93932 108.279 2.08337C108.713 2.22742 109.057 2.42768 109.315 2.68415C109.573 2.94063 109.719 3.23926 109.749 3.57303H108.504C108.478 3.43601 108.403 3.30602 108.283 3.17954C108.16 3.05306 107.977 2.94765 107.726 2.85982C107.479 2.7755 107.147 2.72983 106.732 2.72983C106.291 2.72983 105.947 2.78253 105.7 2.88793C105.453 2.99333 105.326 3.15143 105.326 3.35872C105.326 3.48871 105.401 3.59763 105.554 3.68897C105.704 3.78032 105.984 3.84356 106.392 3.87869L107.737 3.99464C108.279 4.04031 108.702 4.13166 109.005 4.26516C109.308 4.39867 109.524 4.56731 109.651 4.7746C109.779 4.98189 109.838 5.21377 109.838 5.47376L109.85 5.46673Z" fill="white"/>
<path d="M111.453 1.314C111.221 1.314 111.031 1.25427 110.877 1.1313C110.728 1.01185 110.649 0.853746 110.649 0.656998C110.649 0.46025 110.724 0.305661 110.877 0.182694C111.027 0.0632393 111.221 0 111.453 0C111.685 0 111.883 0.0597259 112.033 0.182694C112.178 0.302148 112.253 0.46025 112.253 0.656998C112.253 0.853746 112.178 1.00833 112.033 1.1313C111.883 1.25076 111.692 1.314 111.453 1.314ZM110.84 1.94289L111.453 2.04829L112.066 1.94289V6.99159H110.84V1.94289Z" fill="white"/>
<path d="M113.109 1.97746H114.336L114.657 3.78333V6.98751H113.431V3.61468L113.109 1.97746ZM116.773 1.85449C117.274 1.85449 117.704 1.94935 118.055 2.13907C118.407 2.32879 118.676 2.59932 118.859 2.95066C119.046 3.302 119.136 3.72711 119.136 4.2225V6.99454H117.91V4.4087C117.91 3.8817 117.779 3.4882 117.521 3.21768C117.263 2.94715 116.878 2.81364 116.377 2.81364C116.033 2.81364 115.73 2.88742 115.468 3.03147C115.207 3.17551 115.005 3.37929 114.866 3.63928C114.724 3.89927 114.653 4.20493 114.653 4.55275L114.22 4.33141C114.276 3.81143 114.422 3.36875 114.653 3.00336C114.885 2.63797 115.184 2.3569 115.547 2.15664C115.909 1.95989 116.321 1.86152 116.773 1.86152V1.85449Z" fill="white"/>
<path d="M123.278 7.11399C122.657 7.11399 122.104 7.00508 121.618 6.78022C121.136 6.55888 120.755 6.2497 120.478 5.85621C120.201 5.46271 120.063 4.99895 120.063 4.47546C120.063 3.95197 120.194 3.49874 120.452 3.10876C120.71 2.71878 121.072 2.4096 121.536 2.18826C121.999 1.96692 122.527 1.85449 123.125 1.85449C123.723 1.85449 124.239 1.98097 124.672 2.23042C125.106 2.47987 125.446 2.83472 125.686 3.28794C125.925 3.74117 126.044 4.2752 126.044 4.89003H121.024V4.01169H125.431L124.818 4.33844C124.8 4.00818 124.717 3.7236 124.568 3.4882C124.422 3.25281 124.224 3.07011 123.973 2.94363C123.727 2.81715 123.431 2.75391 123.091 2.75391C122.732 2.75391 122.422 2.82067 122.153 2.95769C121.884 3.09471 121.678 3.28443 121.525 3.53036C121.375 3.7763 121.297 4.0644 121.297 4.40168C121.297 4.77409 121.386 5.09381 121.566 5.36785C121.745 5.63838 121.999 5.84918 122.328 5.99323C122.657 6.13728 123.05 6.21106 123.502 6.21106C123.91 6.21106 124.329 6.15133 124.755 6.02836C125.181 5.9054 125.558 5.73675 125.887 5.51893V6.35159C125.558 6.58699 125.162 6.7732 124.695 6.91022C124.228 7.04724 123.749 7.11399 123.267 7.11399H123.278Z" fill="white"/>
<path d="M132.575 5.46673C132.575 5.80402 132.474 6.09562 132.273 6.34507C132.071 6.59452 131.768 6.78424 131.357 6.91775C130.949 7.05126 130.437 7.11801 129.82 7.11801C129.203 7.11801 128.635 7.04423 128.171 6.89316C127.708 6.74208 127.345 6.53128 127.095 6.25724C126.841 5.9832 126.702 5.66699 126.684 5.30512H127.928C127.966 5.49484 128.067 5.65997 128.235 5.80401C128.403 5.94806 128.62 6.06049 128.893 6.13778C129.166 6.21508 129.48 6.25373 129.831 6.25373C130.34 6.25373 130.725 6.19751 130.983 6.08157C131.241 5.96563 131.368 5.78996 131.368 5.55457C131.368 5.39647 131.282 5.2735 131.11 5.19269C130.938 5.11188 130.613 5.04864 130.134 5.00648L129.087 4.91865C128.523 4.87298 128.074 4.7746 127.749 4.63055C127.42 4.48651 127.188 4.30732 127.05 4.10004C126.912 3.88923 126.844 3.66789 126.844 3.4325C126.844 3.0917 126.956 2.80361 127.185 2.57524C127.413 2.34336 127.727 2.16769 128.127 2.04823C128.527 1.92878 128.998 1.86554 129.532 1.86554C130.067 1.86554 130.579 1.93932 131.013 2.08337C131.446 2.22742 131.79 2.42768 132.048 2.68415C132.306 2.94063 132.448 3.23926 132.482 3.57303H131.237C131.211 3.43601 131.14 3.30602 131.016 3.17954C130.893 3.05306 130.71 2.94765 130.459 2.85982C130.213 2.7755 129.88 2.72983 129.465 2.72983C129.024 2.72983 128.68 2.78253 128.433 2.88793C128.186 2.99333 128.059 3.15143 128.059 3.35872C128.059 3.48871 128.134 3.59763 128.287 3.68897C128.437 3.78032 128.717 3.84356 129.125 3.87869L130.471 3.99464C131.013 4.04031 131.431 4.13166 131.738 4.26516C132.041 4.39867 132.258 4.56731 132.385 4.7746C132.512 4.98189 132.572 5.21377 132.572 5.47376L132.575 5.46673Z" fill="white"/>
<path d="M139.088 5.46673C139.088 5.80402 138.987 6.09562 138.785 6.34507C138.583 6.59452 138.28 6.78424 137.869 6.91775C137.461 7.05126 136.949 7.11801 136.332 7.11801C135.715 7.11801 135.147 7.04423 134.684 6.89316C134.22 6.74208 133.858 6.53128 133.607 6.25724C133.353 5.9832 133.214 5.66699 133.196 5.30512H134.441C134.478 5.49484 134.579 5.65997 134.747 5.80401C134.915 5.94806 135.132 6.06049 135.405 6.13778C135.678 6.21508 135.992 6.25373 136.344 6.25373C136.852 6.25373 137.237 6.19751 137.495 6.08157C137.753 5.96563 137.88 5.78996 137.88 5.55457C137.88 5.39647 137.794 5.2735 137.622 5.19269C137.45 5.11188 137.125 5.04864 136.646 5.00648L135.6 4.91865C135.035 4.87298 134.586 4.7746 134.261 4.63055C133.932 4.48651 133.7 4.30732 133.562 4.10004C133.424 3.88923 133.357 3.66789 133.357 3.4325C133.357 3.0917 133.469 2.80361 133.697 2.57524C133.925 2.34336 134.239 2.16769 134.639 2.04823C135.039 1.92878 135.51 1.86554 136.044 1.86554C136.579 1.86554 137.091 1.93932 137.525 2.08337C137.959 2.22742 138.302 2.42768 138.56 2.68415C138.818 2.94063 138.96 3.23926 138.994 3.57303H137.749C137.723 3.43601 137.652 3.30602 137.529 3.17954C137.405 3.05306 137.222 2.94765 136.972 2.85982C136.725 2.7755 136.392 2.72983 135.977 2.72983C135.536 2.72983 135.192 2.78253 134.945 2.88793C134.699 2.99333 134.572 3.15143 134.572 3.35872C134.572 3.48871 134.646 3.59763 134.8 3.68897C134.949 3.78032 135.229 3.84356 135.637 3.87869L136.983 3.99464C137.525 4.04031 137.944 4.13166 138.25 4.26516C138.553 4.39867 138.77 4.56731 138.897 4.7746C139.024 4.98189 139.084 5.21377 139.084 5.47376L139.088 5.46673Z" fill="white"/>
<path d="M89.5908 9.93896H90.8357V16.5792H89.5908V9.93896Z" fill="white"/>
<path d="M91.9761 11.5697H93.2023L93.5238 13.3756V16.5798H92.2976V13.207L91.9761 11.5697ZM95.6397 11.4468C96.1407 11.4468 96.5706 11.5416 96.922 11.7314C97.2734 11.9211 97.5426 12.1916 97.7258 12.5429C97.9127 12.8943 98.0024 13.3194 98.0024 13.8148V16.5868H96.7762V14.001C96.7762 13.474 96.6454 13.0805 96.3837 12.81C96.122 12.5394 95.7407 12.4059 95.2397 12.4059C94.892 12.4059 94.5892 12.4797 94.3313 12.6238C94.0696 12.7678 93.8715 12.9716 93.7294 13.2316C93.5873 13.4916 93.5163 13.7972 93.5163 14.145L93.0826 13.9237C93.1387 13.4037 93.2845 12.961 93.5163 12.5956C93.7481 12.2303 94.0472 11.9492 94.4098 11.7489C94.7724 11.5522 95.1836 11.4538 95.636 11.4538L95.6397 11.4468Z" fill="white"/>
<path d="M98.5522 12.4542V11.9307L99.6925 11.6567L100.201 10.2584H100.919V11.5688H103.397V12.4542H100.919V14.622C100.919 15.04 101.016 15.3352 101.207 15.5038C101.397 15.6724 101.711 15.7568 102.145 15.7568C102.422 15.7568 102.665 15.7287 102.881 15.6725C103.094 15.6162 103.3 15.5354 103.494 15.43V16.3786C103.33 16.4559 103.102 16.5297 102.803 16.6C102.504 16.6702 102.197 16.7054 101.883 16.7054C101.364 16.7054 100.941 16.6246 100.62 16.463C100.298 16.3013 100.066 16.0765 99.9168 15.7884C99.771 15.5038 99.6962 15.1736 99.6962 14.8011V12.4542H98.556H98.5522Z" fill="white"/>
<path d="M107.109 16.7063C106.489 16.7063 105.935 16.5974 105.449 16.3725C104.967 16.1512 104.586 15.842 104.309 15.4485C104.032 15.055 103.894 14.5912 103.894 14.0677C103.894 13.5443 104.025 13.091 104.283 12.701C104.541 12.3111 104.903 12.0019 105.367 11.7805C105.831 11.5592 106.358 11.4468 106.956 11.4468C107.554 11.4468 108.07 11.5733 108.504 11.8227C108.937 12.0722 109.277 12.427 109.517 12.8802C109.756 13.3334 109.876 13.8675 109.876 14.4823H104.855V13.604H109.262L108.649 13.9307C108.631 13.6005 108.548 13.3159 108.399 13.0805C108.253 12.8451 108.055 12.6624 107.804 12.5359C107.558 12.4094 107.262 12.3462 106.922 12.3462C106.563 12.3462 106.253 12.413 105.984 12.55C105.715 12.687 105.509 12.8767 105.356 13.1226C105.206 13.3686 105.128 13.6567 105.128 13.994C105.128 14.3664 105.217 14.6861 105.397 14.9601C105.576 15.2307 105.831 15.4415 106.16 15.5855C106.489 15.7296 106.881 15.8033 107.333 15.8033C107.741 15.8033 108.16 15.7436 108.586 15.6206C109.012 15.4977 109.39 15.329 109.718 15.1112V15.9439C109.39 16.1793 108.993 16.3655 108.526 16.5025C108.059 16.6395 107.58 16.7063 107.098 16.7063H107.109Z" fill="white"/>
<path d="M110.885 9.763H112.111V16.5824H110.885V9.763Z" fill="white"/>
<path d="M113.412 9.763H114.638V16.5824H113.412V9.763Z" fill="white"/>
<path d="M116.549 10.9056C116.317 10.9056 116.126 10.8459 115.973 10.7229C115.823 10.6035 115.749 10.4454 115.749 10.2486C115.749 10.0519 115.823 9.89728 115.973 9.77431C116.122 9.65486 116.317 9.59161 116.549 9.59161C116.78 9.59161 116.982 9.65134 117.128 9.77431C117.274 9.89728 117.349 10.0519 117.349 10.2486C117.349 10.4454 117.274 10.5999 117.128 10.7229C116.982 10.8424 116.788 10.9056 116.549 10.9056ZM115.935 11.5345L116.549 11.6399L117.162 11.5345V16.5832H115.935V11.5345Z" fill="white"/>
<path d="M120.743 16.1898C120.254 16.1898 119.813 16.0914 119.424 15.8947C119.035 15.6979 118.725 15.4204 118.5 15.0655C118.276 14.7107 118.16 14.2961 118.16 13.8183C118.16 13.3405 118.272 12.9224 118.5 12.5711C118.728 12.2162 119.035 11.9422 119.424 11.7419C119.813 11.5452 120.254 11.4468 120.743 11.4468C121.106 11.4468 121.446 11.4995 121.757 11.6049C122.067 11.7103 122.347 11.8508 122.594 12.0265C122.841 12.2021 123.054 12.3919 123.226 12.6027C123.398 12.8135 123.532 13.0243 123.626 13.2386C123.719 13.4529 123.768 13.6497 123.768 13.8288C123.768 14.0607 123.697 14.3102 123.551 14.5877C123.405 14.8653 123.2 15.1217 122.934 15.3642C122.669 15.6066 122.347 15.8069 121.977 15.9614C121.607 16.1195 121.196 16.1968 120.743 16.1968V16.1898ZM123.308 15.3501V14.4648L123.353 14.3067V13.3405L123.308 13.1648V11.5697H124.534V15.2447C124.534 15.8877 124.388 16.4252 124.1 16.8609C123.813 17.2965 123.416 17.6197 122.915 17.8411C122.411 18.0589 121.835 18.1678 121.181 18.1678C120.702 18.1678 120.265 18.1081 119.861 17.9922C119.457 17.8727 119.069 17.6935 118.691 17.4511V16.4955C119.076 16.7801 119.469 16.9768 119.88 17.0927C120.291 17.2087 120.699 17.2649 121.106 17.2649C121.824 17.2649 122.37 17.0998 122.743 16.7695C123.117 16.4393 123.308 15.965 123.308 15.3536V15.3501ZM121.121 15.3396C121.566 15.3396 121.977 15.2201 122.351 14.9777C122.725 14.7353 123.057 14.3488 123.353 13.8183C123.057 13.2737 122.721 12.8837 122.351 12.6448C121.977 12.4059 121.566 12.2865 121.121 12.2865C120.758 12.2865 120.444 12.3497 120.186 12.4797C119.928 12.6097 119.734 12.7889 119.599 13.0208C119.465 13.2526 119.398 13.5161 119.398 13.8183C119.398 14.1204 119.465 14.3769 119.599 14.6053C119.734 14.8337 119.928 15.0164 120.186 15.1463C120.444 15.2763 120.755 15.3396 121.121 15.3396Z" fill="white"/>
<path d="M128.714 16.7063C128.093 16.7063 127.54 16.5974 127.054 16.3725C126.571 16.1512 126.19 15.842 125.913 15.4485C125.637 15.055 125.499 14.5912 125.499 14.0677C125.499 13.5443 125.629 13.091 125.891 12.701C126.153 12.3111 126.512 12.0019 126.975 11.7805C127.435 11.5592 127.966 11.4468 128.564 11.4468C129.162 11.4468 129.678 11.5733 130.115 11.8227C130.553 12.0722 130.889 12.427 131.129 12.8802C131.368 13.3334 131.487 13.8675 131.487 14.4823H126.463V13.604H130.874L130.261 13.9307C130.243 13.6005 130.16 13.3159 130.011 13.0805C129.861 12.8451 129.667 12.6624 129.416 12.5359C129.166 12.4094 128.874 12.3462 128.534 12.3462C128.175 12.3462 127.865 12.413 127.596 12.55C127.33 12.687 127.121 12.8767 126.968 13.1226C126.818 13.3686 126.743 13.6567 126.743 13.994C126.743 14.3664 126.833 14.6861 127.013 14.9601C127.192 15.2307 127.446 15.4415 127.775 15.5855C128.104 15.7296 128.497 15.8033 128.949 15.8033C129.357 15.8033 129.775 15.7436 130.201 15.6206C130.628 15.5012 131.005 15.329 131.33 15.1112V15.9439C131.005 16.1793 130.605 16.3655 130.138 16.5025C129.671 16.6395 129.192 16.7063 128.71 16.7063H128.714Z" fill="white"/>
<path d="M132.239 11.5697H133.465L133.786 13.3756V16.5798H132.56V13.207L132.239 11.5697ZM135.902 11.4468C136.403 11.4468 136.833 11.5416 137.185 11.7314C137.536 11.9211 137.805 12.1916 137.988 12.5429C138.175 12.8943 138.265 13.3194 138.265 13.8148V16.5868H137.039V14.001C137.039 13.474 136.908 13.0805 136.65 12.81C136.392 12.5394 136.007 12.4059 135.506 12.4059C135.162 12.4059 134.859 12.4797 134.598 12.6238C134.336 12.7678 134.134 12.9716 133.996 13.2316C133.854 13.4916 133.783 13.7972 133.783 14.145L133.349 13.9237C133.405 13.4037 133.551 12.961 133.783 12.5956C134.015 12.2303 134.314 11.9492 134.676 11.7489C135.039 11.5522 135.45 11.4538 135.902 11.4538V11.4468Z" fill="white"/>
<path d="M145.383 14.6052C145.319 15.0198 145.148 15.3816 144.863 15.6978C144.579 16.014 144.22 16.26 143.779 16.4356C143.338 16.6113 142.848 16.7027 142.31 16.7027C141.693 16.7027 141.151 16.5937 140.684 16.3689C140.217 16.1475 139.85 15.8384 139.585 15.4449C139.319 15.0514 139.188 14.5911 139.188 14.0711C139.188 13.5512 139.319 13.0944 139.585 12.6974C139.85 12.3004 140.213 11.9947 140.684 11.7734C141.155 11.5521 141.693 11.4396 142.31 11.4396C142.852 11.4396 143.342 11.5275 143.779 11.7067C144.217 11.8858 144.579 12.1318 144.863 12.4445C145.148 12.7607 145.319 13.1296 145.383 13.5477H144.149C144.063 13.1682 143.85 12.8731 143.518 12.6623C143.185 12.448 142.781 12.3426 142.31 12.3426C141.932 12.3426 141.603 12.4128 141.319 12.5499C141.035 12.6869 140.818 12.8871 140.665 13.1436C140.512 13.4001 140.433 13.7093 140.433 14.0676C140.433 14.426 140.512 14.7281 140.665 14.9881C140.818 15.2481 141.039 15.4484 141.319 15.5854C141.603 15.7259 141.932 15.7927 142.31 15.7927C142.789 15.7927 143.192 15.6838 143.525 15.4659C143.858 15.2481 144.067 14.9565 144.146 14.5981H145.379L145.383 14.6052Z" fill="white"/>
<path d="M149.226 16.7063C148.606 16.7063 148.052 16.5974 147.566 16.3725C147.084 16.1512 146.703 15.842 146.426 15.4485C146.15 15.055 146.011 14.5912 146.011 14.0677C146.011 13.5443 146.142 13.091 146.404 12.701C146.665 12.3111 147.024 12.0019 147.488 11.7805C147.948 11.5592 148.479 11.4468 149.077 11.4468C149.675 11.4468 150.191 11.5733 150.628 11.8227C151.066 12.0722 151.402 12.427 151.641 12.8802C151.881 13.3334 152 13.8675 152 14.4823H146.976V13.604H151.387L150.774 13.9307C150.755 13.6005 150.673 13.3159 150.524 13.0805C150.374 12.8451 150.18 12.6624 149.929 12.5359C149.679 12.4094 149.387 12.3462 149.047 12.3462C148.688 12.3462 148.378 12.413 148.108 12.55C147.843 12.687 147.634 12.8767 147.48 13.1226C147.331 13.3686 147.256 13.6567 147.256 13.994C147.256 14.3664 147.346 14.6861 147.525 14.9601C147.705 15.2307 147.959 15.4415 148.288 15.5855C148.617 15.7296 149.009 15.8033 149.462 15.8033C149.869 15.8033 150.288 15.7436 150.714 15.6206C151.14 15.5012 151.518 15.329 151.843 15.1112V15.9439C151.518 16.1793 151.118 16.3655 150.651 16.5025C150.183 16.6395 149.705 16.7063 149.223 16.7063H149.226Z" fill="white"/>
<path d="M89.1574 24.0103H90.421C90.4583 24.2773 90.578 24.5092 90.7761 24.7094C90.9743 24.9097 91.2359 25.0643 91.5649 25.1732C91.8902 25.2821 92.2677 25.3383 92.6939 25.3383C93.3295 25.3383 93.8304 25.247 94.2005 25.0608C94.5706 24.8746 94.7575 24.6216 94.7575 24.3019C94.7575 24.0419 94.6491 23.8487 94.436 23.7187C94.2229 23.5887 93.8341 23.4903 93.2771 23.4271L91.7518 23.2409C90.8957 23.1355 90.2752 22.9352 89.8901 22.6436C89.5051 22.352 89.3107 21.9374 89.3107 21.3999C89.3107 20.9923 89.4415 20.641 89.6995 20.3423C89.9574 20.0437 90.3275 19.8153 90.806 19.6502C91.2845 19.4851 91.8416 19.4078 92.4846 19.4078C93.1276 19.4078 93.6809 19.4956 94.1706 19.6748C94.6603 19.8505 95.0529 20.0999 95.3445 20.4126C95.6361 20.7288 95.7968 21.0977 95.8192 21.5228H94.5557C94.5257 21.2874 94.4173 21.0836 94.2416 20.9115C94.0659 20.7393 93.8229 20.6058 93.5201 20.5075C93.2173 20.4091 92.8621 20.3599 92.4547 20.3599C91.8752 20.3599 91.4154 20.4477 91.0677 20.6269C90.72 20.8026 90.5481 21.045 90.5481 21.3542C90.5481 21.5896 90.649 21.7723 90.8546 21.8987C91.0602 22.0252 91.4154 22.1201 91.9238 22.1868L93.4678 22.3906C94.1033 22.4749 94.6043 22.5839 94.9706 22.7209C95.337 22.8614 95.5987 23.0441 95.7557 23.2795C95.9127 23.5114 95.9912 23.8135 95.9912 24.1789C95.9912 24.604 95.8529 24.9765 95.5762 25.2962C95.2996 25.6159 94.9108 25.8618 94.4136 26.034C93.9164 26.2061 93.3332 26.294 92.664 26.294C91.9948 26.294 91.3892 26.1991 90.8696 26.0059C90.3499 25.8126 89.9424 25.5456 89.6396 25.2048C89.3368 24.864 89.1761 24.4635 89.1499 24.0103H89.1574Z" fill="white"/>
<path d="M99.9648 26.2937C99.3181 26.2937 98.7498 26.1847 98.2638 25.9599C97.7778 25.7385 97.3965 25.4294 97.1236 25.0359C96.8507 24.6424 96.7124 24.1821 96.7124 23.6621C96.7124 23.1422 96.8507 22.6784 97.1236 22.2849C97.3965 21.8914 97.7778 21.5857 98.2638 21.3644C98.7498 21.1431 99.3181 21.0306 99.9648 21.0306C100.612 21.0306 101.18 21.1431 101.666 21.3644C102.152 21.5857 102.533 21.8914 102.806 22.2849C103.079 22.6784 103.217 23.1351 103.217 23.6621C103.217 24.1891 103.079 24.6389 102.806 25.0359C102.533 25.4329 102.152 25.7385 101.666 25.9599C101.18 26.1812 100.612 26.2937 99.9648 26.2937ZM99.9648 25.3907C100.38 25.3907 100.735 25.3205 101.034 25.1764C101.333 25.0359 101.565 24.8356 101.726 24.5791C101.89 24.3227 101.972 24.017 101.972 23.6621C101.972 23.3073 101.89 23.0016 101.726 22.7452C101.561 22.4887 101.333 22.2884 101.034 22.1479C100.735 22.0074 100.38 21.9336 99.9648 21.9336C99.5499 21.9336 99.2022 22.0038 98.8994 22.1479C98.5966 22.2919 98.3648 22.4887 98.2003 22.7452C98.0358 23.0016 97.9573 23.3073 97.9573 23.6621C97.9573 24.017 98.0395 24.3227 98.2003 24.5791C98.3648 24.8356 98.5966 25.0359 98.8994 25.1764C99.2022 25.3169 99.5573 25.3907 99.9648 25.3907Z" fill="white"/>
<path d="M104.216 19.3517H105.442V26.1712H104.216V19.3517Z" fill="white"/>
<path d="M108.975 26.2942C108.485 26.2942 108.07 26.1993 107.726 26.0096C107.382 25.8199 107.12 25.5494 106.941 25.1945C106.758 24.8397 106.668 24.4181 106.668 23.9297V21.1577H107.894V23.7505C107.894 24.2705 108.021 24.664 108.275 24.9345C108.53 25.2015 108.896 25.3385 109.375 25.3385C109.719 25.3385 110.018 25.2683 110.264 25.1277C110.511 24.9872 110.705 24.7834 110.844 24.5199C110.982 24.2564 111.049 23.9508 111.049 23.603L111.472 23.8243C111.423 24.3372 111.285 24.7799 111.057 25.1488C110.829 25.5177 110.537 25.8023 110.182 25.9991C109.823 26.1958 109.423 26.2942 108.975 26.2942ZM111.36 26.1712L111.049 24.3654V21.1612H112.276V24.5445L112.586 26.1747H111.36V26.1712Z" fill="white"/>
<path d="M113.034 22.043V21.5195L114.174 21.2454L114.683 19.8471H115.401V21.1576H117.879V22.043H115.401V24.2107C115.401 24.6288 115.498 24.9239 115.688 25.0926C115.879 25.2612 116.193 25.3455 116.627 25.3455C116.903 25.3455 117.146 25.3174 117.363 25.2612C117.576 25.205 117.782 25.1242 117.976 25.0188V25.9674C117.812 26.0447 117.584 26.1185 117.285 26.1887C116.986 26.259 116.679 26.2941 116.365 26.2941C115.845 26.2941 115.423 26.2133 115.102 26.0517C114.78 25.8901 114.548 25.6652 114.399 25.3771C114.253 25.0926 114.178 24.7623 114.178 24.3899V22.043H113.038H113.034Z" fill="white"/>
<path d="M119.48 20.4934C119.248 20.4934 119.057 20.4337 118.904 20.3107C118.754 20.1912 118.68 20.0331 118.68 19.8364C118.68 19.6396 118.754 19.485 118.904 19.3621C119.054 19.2426 119.248 19.1794 119.48 19.1794C119.711 19.1794 119.913 19.2391 120.059 19.3621C120.205 19.485 120.28 19.6396 120.28 19.8364C120.28 20.0331 120.205 20.1877 120.059 20.3107C119.913 20.4301 119.719 20.4934 119.48 20.4934ZM118.867 21.1223L119.48 21.2277L120.093 21.1223V26.171H118.867V21.1223Z" fill="white"/>
<path d="M124.34 26.2937C123.693 26.2937 123.125 26.1847 122.639 25.9599C122.153 25.7385 121.772 25.4294 121.499 25.0359C121.226 24.6424 121.087 24.1821 121.087 23.6621C121.087 23.1422 121.226 22.6784 121.499 22.2849C121.772 21.8914 122.153 21.5857 122.639 21.3644C123.125 21.1431 123.693 21.0306 124.34 21.0306C124.987 21.0306 125.555 21.1431 126.041 21.3644C126.527 21.5857 126.908 21.8914 127.181 22.2849C127.454 22.6784 127.592 23.1351 127.592 23.6621C127.592 24.1891 127.454 24.6389 127.181 25.0359C126.908 25.4329 126.527 25.7385 126.041 25.9599C125.555 26.1812 124.987 26.2937 124.34 26.2937ZM124.34 25.3907C124.755 25.3907 125.11 25.3205 125.409 25.1764C125.708 25.0359 125.94 24.8356 126.101 24.5791C126.265 24.3227 126.347 24.017 126.347 23.6621C126.347 23.3073 126.265 23.0016 126.101 22.7452C125.936 22.4887 125.708 22.2884 125.409 22.1479C125.11 22.0074 124.755 21.9336 124.34 21.9336C123.925 21.9336 123.577 22.0038 123.274 22.1479C122.972 22.2919 122.74 22.4887 122.575 22.7452C122.411 23.0016 122.332 23.3073 122.332 23.6621C122.332 24.017 122.415 24.3227 122.575 24.5791C122.74 24.8356 122.972 25.0359 123.274 25.1764C123.577 25.3169 123.932 25.3907 124.34 25.3907Z" fill="white"/>
<path d="M128.336 21.1568H129.562L129.884 22.9627V26.1669H128.657V22.7941L128.336 21.1568ZM132 21.0339C132.501 21.0339 132.93 21.1287 133.282 21.3185C133.633 21.5082 133.902 21.7787 134.086 22.13C134.273 22.4814 134.362 22.9065 134.362 23.4019V26.1739H133.136V23.5881C133.136 23.0611 133.005 22.6676 132.744 22.3971C132.482 22.1265 132.101 21.993 131.6 21.993C131.252 21.993 130.949 22.0668 130.691 22.2109C130.429 22.3549 130.231 22.5587 130.089 22.8187C129.947 23.0787 129.876 23.3843 129.876 23.7321L129.443 23.5108C129.499 22.9908 129.644 22.5481 129.876 22.1827C130.108 21.8174 130.407 21.5363 130.77 21.336C131.132 21.1393 131.543 21.0409 131.996 21.0409L132 21.0339Z" fill="white"/>
<path d="M141.114 24.6464C141.114 24.9837 141.013 25.2753 140.811 25.5248C140.609 25.7742 140.306 25.9639 139.895 26.0974C139.488 26.2309 138.975 26.2977 138.359 26.2977C137.742 26.2977 137.173 26.2239 136.71 26.0728C136.246 25.9218 135.884 25.711 135.629 25.4369C135.375 25.1629 135.241 24.8467 135.218 24.4848H136.463C136.501 24.6745 136.605 24.8397 136.77 24.9837C136.934 25.1277 137.155 25.2402 137.428 25.3175C137.701 25.3948 138.015 25.4334 138.366 25.4334C138.874 25.4334 139.256 25.3772 139.514 25.2613C139.772 25.1453 139.899 24.9696 139.899 24.7343C139.899 24.5762 139.813 24.4532 139.641 24.3724C139.469 24.2881 139.144 24.2283 138.665 24.1862L137.618 24.0983C137.054 24.0527 136.605 23.9543 136.28 23.8102C135.955 23.6662 135.719 23.487 135.581 23.2797C135.443 23.0724 135.375 22.8476 135.375 22.6122C135.375 22.2714 135.487 21.9833 135.715 21.7549C135.944 21.5266 136.258 21.3474 136.658 21.2279C137.061 21.1085 137.529 21.0452 138.063 21.0452C138.598 21.0452 139.11 21.119 139.544 21.2631C139.977 21.4071 140.321 21.6074 140.579 21.8638C140.837 22.1203 140.983 22.4189 141.013 22.7527H139.768C139.742 22.6157 139.667 22.4857 139.547 22.3592C139.424 22.2327 139.241 22.1273 138.99 22.0395C138.744 21.9552 138.411 21.9095 137.996 21.9095C137.555 21.9095 137.211 21.9622 136.964 22.0676C136.717 22.173 136.59 22.3311 136.59 22.5384C136.59 22.6684 136.665 22.7773 136.818 22.8687C136.968 22.96 137.248 23.0232 137.656 23.0584L139.002 23.1743C139.544 23.22 139.966 23.3113 140.269 23.4448C140.572 23.5784 140.789 23.747 140.916 23.9543C141.043 24.1616 141.103 24.3935 141.103 24.6534L141.114 24.6464Z" fill="white"/>
<path d="M149.181 5.65887C147.63 5.65887 146.374 4.47136 146.377 3.0098C146.381 1.55527 147.641 0.378296 149.189 0.378296C150.736 0.378296 151.996 1.5623 151.996 3.01683C151.996 4.47487 150.733 5.66239 149.181 5.65887ZM151.645 3.01332C151.645 1.73797 150.542 0.705038 149.185 0.705038C147.828 0.705038 146.725 1.74148 146.725 3.01683C146.725 4.29569 147.824 5.32862 149.181 5.33213C150.546 5.33213 151.649 4.2992 151.645 3.01683V3.01332Z" fill="white"/>
<path d="M149.749 3.23112C149.974 3.62111 150.194 4.00406 150.422 4.4081C150.232 4.4081 150.063 4.41161 149.895 4.4081C149.865 4.4081 149.832 4.36594 149.817 4.33432C149.645 4.02866 149.473 3.72299 149.308 3.41733C149.278 3.36112 149.245 3.34004 149.177 3.34355C149.024 3.34706 148.867 3.34355 148.699 3.34355V4.4081H148.19V1.6466C148.19 1.6466 148.202 1.63606 148.209 1.63606C148.639 1.63957 149.076 1.61849 149.503 1.65714C150.164 1.72389 150.381 2.19468 150.262 2.70763C150.209 2.936 150.078 3.06248 149.757 3.23815L149.749 3.23112ZM148.699 2.95005C148.89 2.95005 149.076 2.95005 149.26 2.95005C149.304 2.95005 149.349 2.94303 149.394 2.93249C149.626 2.88681 149.768 2.7252 149.772 2.50034C149.776 2.25792 149.656 2.07523 149.42 2.04361C149.185 2.01199 148.942 2.01901 148.699 2.00496V2.94654V2.95005Z" fill="white"/>
<path d="M38.3115 0.245728V27H44.6855V0.245728H38.3115Z" fill="white"/>
<path d="M24.1427 15.8244H0V10.7932H24.1427C25.9222 10.7932 27.3727 9.52141 27.3727 7.95797C27.3727 6.39452 25.9222 5.12268 24.1427 5.12268H0V0.0915527H24.1427C28.8755 0.0915527 32.7261 3.61897 32.7261 7.95797C32.7261 12.297 28.8755 15.8244 24.1427 15.8244Z" fill="white"/>
<path d="M72.7122 16.1405H57.2763C52.5434 16.1405 48.6929 12.6131 48.6929 8.27413C48.6929 3.93513 52.5434 0.407715 57.2763 0.407715H80.7199V5.43885H57.2763C55.4968 5.43885 54.0463 6.71068 54.0463 8.27413C54.0463 9.83757 55.4968 11.1094 57.2763 11.1094H72.7122V16.1405Z" fill="white"/>
<path d="M73.6132 26.8418H50.1509V21.8107H73.6132C75.3927 21.8107 76.8432 20.5389 76.8432 18.9754C76.8432 17.412 75.3927 16.1401 73.6132 16.1401H58.9175V11.109H73.6132C78.346 11.109 82.1966 14.6364 82.1966 18.9754C82.1966 23.3144 78.346 26.8418 73.6132 26.8418Z" fill="white"/>
<path d="M24.9653 26.5266H0.00390625V21.4955H24.9653C26.857 21.4955 28.3934 20.2236 28.3934 18.6602C28.3934 17.0967 26.8532 15.8249 24.9653 15.8249H0.00390625V10.7938H24.9653C29.8103 10.7938 33.7506 14.3212 33.7506 18.6602C33.7506 22.9992 29.8103 26.5266 24.9653 26.5266Z" fill="white"/>
</svg>
